<svg xmlns="http://www.w3.org/2000/svg" xmlns:xlink="http://www.w3.org/1999/xlink" version="1.1" width="256" height="256" viewBox="0 0 256 256" xml:space="preserve">
<desc>Created with Fabric.js 1.7.22</desc>
<defs>
</defs>
<g transform="translate(128 128) scale(0.72 0.72)" style="">
	<g style="stroke: none; stroke-width: 0; stroke-dasharray: none; stroke-linecap: butt; stroke-linejoin: miter; stroke-miterlimit: 10; fill: none; fill-rule: nonzero; opacity: 1;" transform="translate(-175.05 -175.05000000000004) scale(3.89 3.89)" >
	<path d="M 69.944 48 H 3 c -1.657 0 -3 -1.343 -3 -3 c 0 -1.657 1.343 -3 3 -3 h 66.944 c 1.657 0 3 1.343 3 3 C 72.944 46.657 71.602 48 69.944 48 z" style="stroke: none; stroke-width: 1; stroke-dasharray: none; stroke-linecap: butt; stroke-linejoin: miter; stroke-miterlimit: 10; fill: rgb(0,0,0); fill-rule: nonzero; opacity: 1;" transform=" matrix(1 0 0 1 0 0) " stroke-linecap="round" />
	<path d="M 54.949 62.994 c -0.768 0 -1.535 -0.293 -2.121 -0.879 c -1.172 -1.172 -1.172 -3.071 0 -4.242 L 65.701 45 L 52.828 32.127 c -1.172 -1.172 -1.172 -3.071 0 -4.243 c 1.172 -1.172 3.07 -1.171 4.242 0 l 14.995 14.995 c 0.563 0.563 0.879 1.326 0.879 2.122 s -0.316 1.559 -0.879 2.121 L 57.07 62.115 C 56.484 62.701 55.717 62.994 54.949 62.994 z" style="stroke: none; stroke-width: 1; stroke-dasharray: none; stroke-linecap: butt; stroke-linejoin: miter; stroke-miterlimit: 10; fill: rgb(0,0,0); fill-rule: nonzero; opacity: 1;" transform=" matrix(1 0 0 1 0 0) " stroke-linecap="round" />
	<path d="M 87 82.5 H 18 c -1.657 0 -3 -1.343 -3 -3 V 61.115 c 0 -1.657 1.343 -3 3 -3 s 3 1.343 3 3 V 76.5 h 63 v -63 H 21 v 15.385 c 0 1.657 -1.343 3 -3 3 s -3 -1.343 -3 -3 V 10.5 c 0 -1.657 1.343 -3 3 -3 h 69 c 1.657 0 3 1.343 3 3 v 69 C 90 81.157 88.657 82.5 87 82.5 z" style="stroke: none; stroke-width: 1; stroke-dasharray: none; stroke-linecap: butt; stroke-linejoin: miter; stroke-miterlimit: 10; fill: rgb(0,0,0); fill-rule: nonzero; opacity: 1;" transform=" matrix(1 0 0 1 0 0) " stroke-linecap="round" />
</g>
</g>
</svg>